<mxfile host="app.diagrams.net" modified="2022-02-09T12:31:40.764Z" agent="5.0 (Windows NT 10.0; Win64; x64) AppleWebKit/537.36 (KHTML, like Gecko) Chrome/97.0.4692.99 Safari/537.36" etag="1l3UnvxF2eeL98-pCbbR" version="16.5.4" type="github">
  <diagram id="Sl7DvPXyF0ELnMigt8Z0" name="Page-1">
    <mxGraphModel dx="1422" dy="772" grid="1" gridSize="10" guides="1" tooltips="1" connect="1" arrows="1" fold="1" page="1" pageScale="1" pageWidth="850" pageHeight="1100" math="0" shadow="0">
      <root>
        <mxCell id="0" />
        <mxCell id="1" parent="0" />
        <mxCell id="mZ1JnfvrI32sSIvTxbj3-1" value="" style="edgeStyle=orthogonalEdgeStyle;rounded=0;orthogonalLoop=1;jettySize=auto;html=1;entryX=0;entryY=0.5;entryDx=0;entryDy=0;" edge="1" parent="1" source="mZ1JnfvrI32sSIvTxbj3-2" target="mZ1JnfvrI32sSIvTxbj3-4">
          <mxGeometry relative="1" as="geometry">
            <mxPoint x="540" y="400" as="targetPoint" />
          </mxGeometry>
        </mxCell>
        <mxCell id="mZ1JnfvrI32sSIvTxbj3-2" value="Start" style="strokeWidth=2;html=1;shape=mxgraph.flowchart.start_1;whiteSpace=wrap;" vertex="1" parent="1">
          <mxGeometry x="20" y="90" width="100" height="60" as="geometry" />
        </mxCell>
        <mxCell id="mZ1JnfvrI32sSIvTxbj3-3" style="edgeStyle=orthogonalEdgeStyle;rounded=0;orthogonalLoop=1;jettySize=auto;html=1;entryX=0;entryY=0.5;entryDx=0;entryDy=0;" edge="1" parent="1" source="mZ1JnfvrI32sSIvTxbj3-4" target="mZ1JnfvrI32sSIvTxbj3-9">
          <mxGeometry relative="1" as="geometry" />
        </mxCell>
        <mxCell id="mZ1JnfvrI32sSIvTxbj3-4" value="Supply Chain Dept. to create new PO" style="rounded=1;whiteSpace=wrap;html=1;absoluteArcSize=1;arcSize=14;strokeWidth=2;" vertex="1" parent="1">
          <mxGeometry x="160" y="70" width="100" height="100" as="geometry" />
        </mxCell>
        <mxCell id="mZ1JnfvrI32sSIvTxbj3-5" style="edgeStyle=orthogonalEdgeStyle;rounded=0;orthogonalLoop=1;jettySize=auto;html=1;entryX=0.35;entryY=0;entryDx=0;entryDy=0;entryPerimeter=0;" edge="1" parent="1" source="mZ1JnfvrI32sSIvTxbj3-9" target="mZ1JnfvrI32sSIvTxbj3-11">
          <mxGeometry relative="1" as="geometry" />
        </mxCell>
        <mxCell id="mZ1JnfvrI32sSIvTxbj3-6" style="edgeStyle=orthogonalEdgeStyle;rounded=0;orthogonalLoop=1;jettySize=auto;html=1;entryX=0.5;entryY=0;entryDx=0;entryDy=0;entryPerimeter=0;" edge="1" parent="1" target="mZ1JnfvrI32sSIvTxbj3-10">
          <mxGeometry relative="1" as="geometry">
            <mxPoint x="365" y="180" as="sourcePoint" />
          </mxGeometry>
        </mxCell>
        <mxCell id="mZ1JnfvrI32sSIvTxbj3-7" style="edgeStyle=orthogonalEdgeStyle;rounded=0;orthogonalLoop=1;jettySize=auto;html=1;exitX=0.5;exitY=1;exitDx=0;exitDy=0;entryX=0.5;entryY=0;entryDx=0;entryDy=0;entryPerimeter=0;" edge="1" parent="1" source="mZ1JnfvrI32sSIvTxbj3-9" target="mZ1JnfvrI32sSIvTxbj3-12">
          <mxGeometry relative="1" as="geometry">
            <Array as="points">
              <mxPoint x="365" y="180" />
              <mxPoint x="270" y="180" />
            </Array>
          </mxGeometry>
        </mxCell>
        <mxCell id="mZ1JnfvrI32sSIvTxbj3-8" style="edgeStyle=orthogonalEdgeStyle;rounded=0;orthogonalLoop=1;jettySize=auto;html=1;exitX=1;exitY=0.5;exitDx=0;exitDy=0;entryX=0;entryY=0.5;entryDx=0;entryDy=0;" edge="1" parent="1" source="mZ1JnfvrI32sSIvTxbj3-9" target="mZ1JnfvrI32sSIvTxbj3-14">
          <mxGeometry relative="1" as="geometry" />
        </mxCell>
        <mxCell id="mZ1JnfvrI32sSIvTxbj3-9" value="Get data&lt;br&gt;PO info &lt;br&gt;items bank&lt;br&gt;details" style="shape=parallelogram;html=1;strokeWidth=2;perimeter=parallelogramPerimeter;whiteSpace=wrap;rounded=1;arcSize=12;size=0.23;" vertex="1" parent="1">
          <mxGeometry x="300" y="70" width="130" height="100" as="geometry" />
        </mxCell>
        <mxCell id="mZ1JnfvrI32sSIvTxbj3-10" value="Add from Deman" style="strokeWidth=2;html=1;shape=mxgraph.flowchart.document2;whiteSpace=wrap;size=0.25;" vertex="1" parent="1">
          <mxGeometry x="440" y="210" width="100" height="60" as="geometry" />
        </mxCell>
        <mxCell id="mZ1JnfvrI32sSIvTxbj3-11" value="Add from PR" style="strokeWidth=2;html=1;shape=mxgraph.flowchart.document2;whiteSpace=wrap;size=0.25;" vertex="1" parent="1">
          <mxGeometry x="330" y="210" width="100" height="60" as="geometry" />
        </mxCell>
        <mxCell id="mZ1JnfvrI32sSIvTxbj3-12" value="Add from List" style="strokeWidth=2;html=1;shape=mxgraph.flowchart.document2;whiteSpace=wrap;size=0.25;" vertex="1" parent="1">
          <mxGeometry x="220" y="210" width="100" height="60" as="geometry" />
        </mxCell>
        <mxCell id="mZ1JnfvrI32sSIvTxbj3-13" style="edgeStyle=orthogonalEdgeStyle;rounded=0;orthogonalLoop=1;jettySize=auto;html=1;entryX=0;entryY=0.5;entryDx=0;entryDy=0;entryPerimeter=0;" edge="1" parent="1" source="mZ1JnfvrI32sSIvTxbj3-14" target="mZ1JnfvrI32sSIvTxbj3-19">
          <mxGeometry relative="1" as="geometry" />
        </mxCell>
        <mxCell id="mZ1JnfvrI32sSIvTxbj3-14" value="Supply Chain Director" style="rounded=1;whiteSpace=wrap;html=1;absoluteArcSize=1;arcSize=14;strokeWidth=2;" vertex="1" parent="1">
          <mxGeometry x="460" y="70" width="100" height="100" as="geometry" />
        </mxCell>
        <mxCell id="mZ1JnfvrI32sSIvTxbj3-15" style="edgeStyle=orthogonalEdgeStyle;rounded=0;orthogonalLoop=1;jettySize=auto;html=1;exitX=0.5;exitY=0;exitDx=0;exitDy=0;exitPerimeter=0;entryX=0.5;entryY=0;entryDx=0;entryDy=0;" edge="1" parent="1" source="mZ1JnfvrI32sSIvTxbj3-19" target="mZ1JnfvrI32sSIvTxbj3-4">
          <mxGeometry relative="1" as="geometry">
            <Array as="points">
              <mxPoint x="640" y="40" />
              <mxPoint x="210" y="40" />
            </Array>
          </mxGeometry>
        </mxCell>
        <mxCell id="mZ1JnfvrI32sSIvTxbj3-16" value="Rejected" style="edgeLabel;html=1;align=center;verticalAlign=middle;resizable=0;points=[];" vertex="1" connectable="0" parent="mZ1JnfvrI32sSIvTxbj3-15">
          <mxGeometry x="0.0571" relative="1" as="geometry">
            <mxPoint as="offset" />
          </mxGeometry>
        </mxCell>
        <mxCell id="mZ1JnfvrI32sSIvTxbj3-17" value="" style="edgeStyle=orthogonalEdgeStyle;rounded=0;orthogonalLoop=1;jettySize=auto;html=1;" edge="1" parent="1" source="mZ1JnfvrI32sSIvTxbj3-19" target="mZ1JnfvrI32sSIvTxbj3-21">
          <mxGeometry relative="1" as="geometry">
            <Array as="points">
              <mxPoint x="740" y="120" />
              <mxPoint x="740" y="120" />
            </Array>
          </mxGeometry>
        </mxCell>
        <mxCell id="mZ1JnfvrI32sSIvTxbj3-18" value="Approved" style="edgeLabel;html=1;align=center;verticalAlign=middle;resizable=0;points=[];" vertex="1" connectable="0" parent="mZ1JnfvrI32sSIvTxbj3-17">
          <mxGeometry x="-0.225" y="1" relative="1" as="geometry">
            <mxPoint as="offset" />
          </mxGeometry>
        </mxCell>
        <mxCell id="mZ1JnfvrI32sSIvTxbj3-19" value="SC Director Approval?" style="strokeWidth=2;html=1;shape=mxgraph.flowchart.decision;whiteSpace=wrap;" vertex="1" parent="1">
          <mxGeometry x="590" y="70" width="100" height="100" as="geometry" />
        </mxCell>
        <mxCell id="mZ1JnfvrI32sSIvTxbj3-20" style="edgeStyle=orthogonalEdgeStyle;rounded=0;orthogonalLoop=1;jettySize=auto;html=1;exitX=1;exitY=0.5;exitDx=0;exitDy=0;entryX=1;entryY=0.5;entryDx=0;entryDy=0;" edge="1" parent="1" source="mZ1JnfvrI32sSIvTxbj3-21" target="mZ1JnfvrI32sSIvTxbj3-23">
          <mxGeometry relative="1" as="geometry">
            <mxPoint x="910" y="360" as="targetPoint" />
          </mxGeometry>
        </mxCell>
        <mxCell id="mZ1JnfvrI32sSIvTxbj3-21" value="Change State" style="shape=process;whiteSpace=wrap;html=1;backgroundOutline=1;strokeWidth=2;" vertex="1" parent="1">
          <mxGeometry x="770" y="70" width="120" height="90" as="geometry" />
        </mxCell>
        <mxCell id="mZ1JnfvrI32sSIvTxbj3-22" style="edgeStyle=orthogonalEdgeStyle;rounded=0;orthogonalLoop=1;jettySize=auto;html=1;entryX=1;entryY=0.5;entryDx=0;entryDy=0;" edge="1" parent="1" source="mZ1JnfvrI32sSIvTxbj3-23" target="mZ1JnfvrI32sSIvTxbj3-25">
          <mxGeometry relative="1" as="geometry" />
        </mxCell>
        <mxCell id="mZ1JnfvrI32sSIvTxbj3-23" value="Warehouse Store keeper to Generates GRN" style="rounded=1;whiteSpace=wrap;html=1;absoluteArcSize=1;arcSize=14;strokeWidth=2;" vertex="1" parent="1">
          <mxGeometry x="780" y="299" width="100" height="100" as="geometry" />
        </mxCell>
        <mxCell id="mZ1JnfvrI32sSIvTxbj3-24" style="edgeStyle=orthogonalEdgeStyle;rounded=0;orthogonalLoop=1;jettySize=auto;html=1;entryX=1;entryY=0.5;entryDx=0;entryDy=0;" edge="1" parent="1" source="mZ1JnfvrI32sSIvTxbj3-25" target="mZ1JnfvrI32sSIvTxbj3-27">
          <mxGeometry relative="1" as="geometry" />
        </mxCell>
        <mxCell id="mZ1JnfvrI32sSIvTxbj3-25" value="Get data From&lt;br&gt;PO Details" style="shape=parallelogram;html=1;strokeWidth=2;perimeter=parallelogramPerimeter;whiteSpace=wrap;rounded=1;arcSize=12;size=0.23;" vertex="1" parent="1">
          <mxGeometry x="610" y="299" width="130" height="100" as="geometry" />
        </mxCell>
        <mxCell id="mZ1JnfvrI32sSIvTxbj3-26" style="edgeStyle=orthogonalEdgeStyle;rounded=0;orthogonalLoop=1;jettySize=auto;html=1;exitX=0.5;exitY=1;exitDx=0;exitDy=0;entryX=0.5;entryY=0;entryDx=0;entryDy=0;entryPerimeter=0;" edge="1" parent="1" source="mZ1JnfvrI32sSIvTxbj3-27" target="mZ1JnfvrI32sSIvTxbj3-29">
          <mxGeometry relative="1" as="geometry" />
        </mxCell>
        <mxCell id="mZ1JnfvrI32sSIvTxbj3-27" value="Quality Control&lt;br&gt;(QC)" style="rounded=1;whiteSpace=wrap;html=1;absoluteArcSize=1;arcSize=14;strokeWidth=2;" vertex="1" parent="1">
          <mxGeometry x="470" y="299" width="100" height="100" as="geometry" />
        </mxCell>
        <mxCell id="mZ1JnfvrI32sSIvTxbj3-28" style="edgeStyle=orthogonalEdgeStyle;rounded=0;orthogonalLoop=1;jettySize=auto;html=1;exitX=0.5;exitY=1;exitDx=0;exitDy=0;exitPerimeter=0;entryX=0.417;entryY=0;entryDx=0;entryDy=0;entryPerimeter=0;" edge="1" parent="1" source="mZ1JnfvrI32sSIvTxbj3-29" target="mZ1JnfvrI32sSIvTxbj3-41">
          <mxGeometry relative="1" as="geometry" />
        </mxCell>
        <mxCell id="mZ1JnfvrI32sSIvTxbj3-29" value="QC&lt;br&gt;Approval?" style="strokeWidth=2;html=1;shape=mxgraph.flowchart.decision;whiteSpace=wrap;" vertex="1" parent="1">
          <mxGeometry x="470" y="440" width="100" height="100" as="geometry" />
        </mxCell>
        <mxCell id="mZ1JnfvrI32sSIvTxbj3-30" value="Hold Area" style="rounded=1;whiteSpace=wrap;html=1;absoluteArcSize=1;arcSize=14;strokeWidth=2;" vertex="1" parent="1">
          <mxGeometry x="690" y="440" width="100" height="100" as="geometry" />
        </mxCell>
        <mxCell id="mZ1JnfvrI32sSIvTxbj3-31" value="" style="edgeStyle=orthogonalEdgeStyle;rounded=0;orthogonalLoop=1;jettySize=auto;html=1;exitX=1;exitY=0.5;exitDx=0;exitDy=0;exitPerimeter=0;entryX=0;entryY=0.5;entryDx=0;entryDy=0;" edge="1" parent="1" source="mZ1JnfvrI32sSIvTxbj3-29" target="mZ1JnfvrI32sSIvTxbj3-30">
          <mxGeometry relative="1" as="geometry">
            <mxPoint x="700" y="160" as="sourcePoint" />
            <mxPoint x="780" y="160" as="targetPoint" />
            <Array as="points">
              <mxPoint x="590" y="490" />
              <mxPoint x="590" y="490" />
            </Array>
          </mxGeometry>
        </mxCell>
        <mxCell id="mZ1JnfvrI32sSIvTxbj3-32" value="Rejected" style="edgeLabel;html=1;align=center;verticalAlign=middle;resizable=0;points=[];" vertex="1" connectable="0" parent="mZ1JnfvrI32sSIvTxbj3-31">
          <mxGeometry x="-0.225" y="1" relative="1" as="geometry">
            <mxPoint as="offset" />
          </mxGeometry>
        </mxCell>
        <mxCell id="mZ1JnfvrI32sSIvTxbj3-33" value="" style="edgeStyle=orthogonalEdgeStyle;rounded=0;orthogonalLoop=1;jettySize=auto;html=1;exitX=0;exitY=0.5;exitDx=0;exitDy=0;exitPerimeter=0;entryX=1;entryY=0.5;entryDx=0;entryDy=0;" edge="1" parent="1" source="mZ1JnfvrI32sSIvTxbj3-29" target="mZ1JnfvrI32sSIvTxbj3-36">
          <mxGeometry relative="1" as="geometry">
            <mxPoint x="440" y="490" as="sourcePoint" />
            <mxPoint x="280" y="489.5" as="targetPoint" />
            <Array as="points" />
          </mxGeometry>
        </mxCell>
        <mxCell id="mZ1JnfvrI32sSIvTxbj3-34" value="Approved" style="edgeLabel;html=1;align=center;verticalAlign=middle;resizable=0;points=[];" vertex="1" connectable="0" parent="mZ1JnfvrI32sSIvTxbj3-33">
          <mxGeometry x="-0.225" y="1" relative="1" as="geometry">
            <mxPoint x="-9" y="-2" as="offset" />
          </mxGeometry>
        </mxCell>
        <mxCell id="mZ1JnfvrI32sSIvTxbj3-35" style="edgeStyle=orthogonalEdgeStyle;rounded=0;orthogonalLoop=1;jettySize=auto;html=1;entryX=0.93;entryY=0.5;entryDx=0;entryDy=0;entryPerimeter=0;" edge="1" parent="1" source="mZ1JnfvrI32sSIvTxbj3-36" target="mZ1JnfvrI32sSIvTxbj3-43">
          <mxGeometry relative="1" as="geometry" />
        </mxCell>
        <mxCell id="mZ1JnfvrI32sSIvTxbj3-36" value="Warehouse&lt;br&gt;Supervisor" style="rounded=1;whiteSpace=wrap;html=1;absoluteArcSize=1;arcSize=14;strokeWidth=2;" vertex="1" parent="1">
          <mxGeometry x="270" y="440" width="110" height="100" as="geometry" />
        </mxCell>
        <mxCell id="mZ1JnfvrI32sSIvTxbj3-37" style="edgeStyle=orthogonalEdgeStyle;rounded=0;orthogonalLoop=1;jettySize=auto;html=1;exitX=1;exitY=0.5;exitDx=0;exitDy=0;entryX=0.5;entryY=1;entryDx=0;entryDy=0;" edge="1" parent="1" source="mZ1JnfvrI32sSIvTxbj3-41" target="mZ1JnfvrI32sSIvTxbj3-30">
          <mxGeometry relative="1" as="geometry" />
        </mxCell>
        <mxCell id="mZ1JnfvrI32sSIvTxbj3-38" value="Partially Rejected" style="edgeLabel;html=1;align=center;verticalAlign=middle;resizable=0;points=[];" vertex="1" connectable="0" parent="mZ1JnfvrI32sSIvTxbj3-37">
          <mxGeometry x="-0.1289" y="1" relative="1" as="geometry">
            <mxPoint as="offset" />
          </mxGeometry>
        </mxCell>
        <mxCell id="mZ1JnfvrI32sSIvTxbj3-39" style="edgeStyle=orthogonalEdgeStyle;rounded=0;orthogonalLoop=1;jettySize=auto;html=1;entryX=0.5;entryY=1;entryDx=0;entryDy=0;" edge="1" parent="1" source="mZ1JnfvrI32sSIvTxbj3-41" target="mZ1JnfvrI32sSIvTxbj3-36">
          <mxGeometry relative="1" as="geometry" />
        </mxCell>
        <mxCell id="mZ1JnfvrI32sSIvTxbj3-40" value="Partially Approved" style="edgeLabel;html=1;align=center;verticalAlign=middle;resizable=0;points=[];" vertex="1" connectable="0" parent="mZ1JnfvrI32sSIvTxbj3-39">
          <mxGeometry x="-0.1636" y="-3" relative="1" as="geometry">
            <mxPoint as="offset" />
          </mxGeometry>
        </mxCell>
        <mxCell id="mZ1JnfvrI32sSIvTxbj3-41" value="Partial Approval" style="shape=process;whiteSpace=wrap;html=1;backgroundOutline=1;strokeWidth=2;" vertex="1" parent="1">
          <mxGeometry x="470" y="570" width="120" height="90" as="geometry" />
        </mxCell>
        <mxCell id="mZ1JnfvrI32sSIvTxbj3-42" style="edgeStyle=orthogonalEdgeStyle;rounded=0;orthogonalLoop=1;jettySize=auto;html=1;entryX=0.442;entryY=-0.025;entryDx=0;entryDy=0;entryPerimeter=0;exitX=0;exitY=0.5;exitDx=0;exitDy=0;exitPerimeter=0;" edge="1" parent="1" source="mZ1JnfvrI32sSIvTxbj3-43" target="mZ1JnfvrI32sSIvTxbj3-46">
          <mxGeometry relative="1" as="geometry">
            <Array as="points">
              <mxPoint x="93" y="490" />
            </Array>
          </mxGeometry>
        </mxCell>
        <mxCell id="mZ1JnfvrI32sSIvTxbj3-43" value="Review Data &amp;amp; Store" style="strokeWidth=2;html=1;shape=mxgraph.flowchart.stored_data;whiteSpace=wrap;" vertex="1" parent="1">
          <mxGeometry x="130" y="455" width="100" height="70" as="geometry" />
        </mxCell>
        <mxCell id="mZ1JnfvrI32sSIvTxbj3-44" style="edgeStyle=orthogonalEdgeStyle;rounded=0;orthogonalLoop=1;jettySize=auto;html=1;exitX=0.5;exitY=1;exitDx=0;exitDy=0;exitPerimeter=0;" edge="1" parent="1" source="mZ1JnfvrI32sSIvTxbj3-43" target="mZ1JnfvrI32sSIvTxbj3-43">
          <mxGeometry relative="1" as="geometry" />
        </mxCell>
        <mxCell id="mZ1JnfvrI32sSIvTxbj3-45" style="edgeStyle=orthogonalEdgeStyle;rounded=0;orthogonalLoop=1;jettySize=auto;html=1;exitX=1;exitY=0.5;exitDx=0;exitDy=0;exitPerimeter=0;entryX=0;entryY=0.5;entryDx=0;entryDy=0;entryPerimeter=0;" edge="1" parent="1" source="mZ1JnfvrI32sSIvTxbj3-46" target="mZ1JnfvrI32sSIvTxbj3-47">
          <mxGeometry relative="1" as="geometry" />
        </mxCell>
        <mxCell id="mZ1JnfvrI32sSIvTxbj3-46" value="Adding to&lt;br&gt;Inventory&lt;br&gt;Balance" style="strokeWidth=2;html=1;shape=mxgraph.flowchart.direct_data;whiteSpace=wrap;" vertex="1" parent="1">
          <mxGeometry x="40" y="603" width="120" height="80" as="geometry" />
        </mxCell>
        <mxCell id="mZ1JnfvrI32sSIvTxbj3-47" value="End" style="strokeWidth=2;html=1;shape=mxgraph.flowchart.start_1;whiteSpace=wrap;" vertex="1" parent="1">
          <mxGeometry x="200" y="613" width="100" height="60" as="geometry" />
        </mxCell>
      </root>
    </mxGraphModel>
  </diagram>
</mxfile>
